<mxfile modified="2024-01-18T09:30:07.803Z" host="app.diagrams.net" agent="Mozilla/5.0 (Windows NT 10.0; Win64; x64) AppleWebKit/537.36 (KHTML, like Gecko) Chrome/120.0.0.0 Safari/537.36" etag="I29cW-Xitl18MNgjB6Zk" version="21.1.8" type="github">
  <diagram id="Ht1M8jgEwFfnCIfOTk4-" name="Page-1">
    <mxGraphModel dx="1221" dy="1552" grid="1" gridSize="10" guides="1" tooltips="1" connect="1" arrows="1" fold="1" page="1" pageScale="1" pageWidth="1169" pageHeight="827" math="0" shadow="0">
      <root>
        <mxCell id="0" />
        <mxCell id="1" parent="0" />
        <mxCell id="UEzPUAAOIrF-is8g5C7q-146" value="Amazon&lt;br&gt;CloudWatch Event&lt;br&gt;" style="outlineConnect=0;fontColor=#232F3E;gradientColor=none;fillColor=#BC1356;strokeColor=none;dashed=0;verticalLabelPosition=bottom;verticalAlign=top;align=center;html=1;fontSize=12;fontStyle=0;aspect=fixed;pointerEvents=1;shape=mxgraph.aws4.event_time_based;labelBackgroundColor=#ffffff;" parent="1" vertex="1">
          <mxGeometry x="860" y="-480" width="78" height="78" as="geometry" />
        </mxCell>
        <mxCell id="UEzPUAAOIrF-is8g5C7q-148" value="Lambda" style="outlineConnect=0;fontColor=#232F3E;gradientColor=#F78E04;gradientDirection=north;fillColor=#D05C17;strokeColor=#ffffff;dashed=0;verticalLabelPosition=bottom;verticalAlign=top;align=center;html=1;fontSize=12;fontStyle=0;aspect=fixed;shape=mxgraph.aws4.resourceIcon;resIcon=mxgraph.aws4.lambda;labelBackgroundColor=#ffffff;spacingTop=8;" parent="1" vertex="1">
          <mxGeometry x="620" y="-280" width="78" height="78" as="geometry" />
        </mxCell>
        <mxCell id="kBkZ9Z5aif8e4juzGFBR-11" style="edgeStyle=orthogonalEdgeStyle;shape=flexArrow;rounded=0;orthogonalLoop=1;jettySize=auto;html=1;" edge="1" parent="1" source="UEzPUAAOIrF-is8g5C7q-156" target="UEzPUAAOIrF-is8g5C7q-158">
          <mxGeometry relative="1" as="geometry" />
        </mxCell>
        <mxCell id="UEzPUAAOIrF-is8g5C7q-156" value="Template" style="outlineConnect=0;fontColor=#232F3E;gradientColor=none;fillColor=#BC1356;strokeColor=none;dashed=0;verticalLabelPosition=bottom;verticalAlign=top;align=center;html=1;fontSize=12;fontStyle=0;aspect=fixed;pointerEvents=1;shape=mxgraph.aws4.template;labelBackgroundColor=#ffffff;" parent="1" vertex="1">
          <mxGeometry x="40" y="-500" width="65" height="78" as="geometry" />
        </mxCell>
        <mxCell id="UEzPUAAOIrF-is8g5C7q-157" value="Template" style="outlineConnect=0;fontColor=#232F3E;gradientColor=none;fillColor=#BC1356;strokeColor=none;dashed=0;verticalLabelPosition=bottom;verticalAlign=top;align=center;html=1;fontSize=12;fontStyle=0;aspect=fixed;pointerEvents=1;shape=mxgraph.aws4.template;labelBackgroundColor=#ffffff;" parent="1" vertex="1">
          <mxGeometry x="220" y="-370" width="65" height="78" as="geometry" />
        </mxCell>
        <mxCell id="kBkZ9Z5aif8e4juzGFBR-7" value="" style="edgeStyle=orthogonalEdgeStyle;rounded=0;orthogonalLoop=1;jettySize=auto;html=1;" edge="1" parent="1" source="UEzPUAAOIrF-is8g5C7q-158" target="UEzPUAAOIrF-is8g5C7q-157">
          <mxGeometry relative="1" as="geometry" />
        </mxCell>
        <mxCell id="UEzPUAAOIrF-is8g5C7q-158" value="Amazon S3&lt;br&gt;Bucket&lt;br&gt;" style="outlineConnect=0;fontColor=#232F3E;gradientColor=none;fillColor=#277116;strokeColor=none;dashed=0;verticalLabelPosition=bottom;verticalAlign=top;align=center;html=1;fontSize=12;fontStyle=0;aspect=fixed;pointerEvents=1;shape=mxgraph.aws4.bucket_with_objects;labelBackgroundColor=#ffffff;" parent="1" vertex="1">
          <mxGeometry x="170" y="-500" width="75" height="78" as="geometry" />
        </mxCell>
        <mxCell id="kBkZ9Z5aif8e4juzGFBR-5" value="" style="line;strokeWidth=2;html=1;" vertex="1" parent="1">
          <mxGeometry x="330" y="-460" width="50" height="10" as="geometry" />
        </mxCell>
        <mxCell id="kBkZ9Z5aif8e4juzGFBR-6" value="" style="shape=image;verticalLabelPosition=bottom;labelBackgroundColor=default;verticalAlign=top;aspect=fixed;imageAspect=0;image=data:image/png,iVBORw0KGgoAAAANSUhEUgAAAOEAAADhCAMAAAAJbSJIAAABAlBMVEX////tPCz8/////v/+/v3vOyzrPSr6/////v78//3//P/9//z//vzuPCr///rrPS3rMSDrKArqPizxOirzdXTwUEDxOivsGQDtPSfwOi/1iX/sOzHpIQDxOyXuFgDrPif3vLbrLRjzkIvumo3rOzT1oJvyeW/75OPvVknvZFruPiH88PP88Oz73dfzhoDrMRT4y8bwUUj3q6n4xLv+3+HuZVTwJhr4wsP909P7tq/508jzbmb5xMjscWbuXUz+9e7zl47yoaP4trb2gXn2bWn1jYf0raPsVE3wbF35yMDxLCPuSy/719zuiXvzg4b0lov0k5X3c3P739HzvKv0XVvuVUJbspC3AAAXIElEQVR4nO1dDXvUNhKWZEtef2jlD2LZWLbXsGFJsmGXNCwJlECTI3y1B71r//9fuRkvJesUehyX7IY+fp+2z0Pq3WgsaeZ9Z0aCkB49evTo0aNHjx49evTo0aNHjx49evTo0aNHjx49evTo0aNHjx49evTo0aNHjx49NgAW+IwFLiGOZduW5W96PFcPy2LWkDg/3N9mzA9ctunxXD0cy3LI4SOdLtRj+IO76fFcPSzi7N2uwpjHuTn5F/mbzSELmO942yaklHJOaVbdm8JStS3XCjY9tquB5Tpk1EQpGEhj/E8ZVtsus52h72x6bFeFoy0tuaIfUec0bppjRjzb2vTIrgbTHZMIpWB90rBacFGILJXZIn/Cvvf9CPEPIqD7QGew96gA+8zL6UE0y3gMf6BS/zYhvmV/x341sGzCDpoGV+a4LjLzdAKTFtzRSd7uSZWYB3vE9zY9zm8Hc9iPY4PeE3yoNA+fMB+8DiPTZ1q0P8t40xx8zyuVHe0YRYvWuzThMXFY4A0932LgeSIJP8xrqhbZ6Psz0bUGDJzk5EyXhZKFpCo0d7tehY0WDezMAoJHYk6O4DP29zSX3tD3ibetd2Ve51mqyur1c2INV/Yb2O9umyYvWw6QGGAAA/87ihyux8jINCmPVZHE0pyAg7nsM32HeWc6aWMkV2H13neGmxrv/w6bPCmivJAiz6TS8ZwwIGgBs1ceYUMQGGT/RON2lLAhm+h4Y+P9egxc37WHjE1f6azIclXTeGHO7S/uL9iaT7aaFIMl/BvVRxBBLXaTeY7vIwMNblccgp/MJU+rF3sO+WK8szAUHjQzOqZJKmVevZoyhjLyxsIbQjzfjhqVq7LIZQ0Rng2sL4/YCYaODQzANLVSVMYgOh5MCbvBDABcyb/jiEouIMgL8/uRY/mWE3xx1QUgn4a2T6ZPDU9iYAZczcxPgxsYNUC/EytwXXJ0PxIw0JgqGiWjr/68T/710OQ0kbmQKipHGFBd27pB+xHH4vpkcs/IknKq0nymtxn56myTbYF+DI1SMPtlLPTJEQN/w27QfmxfdrCt39YcJRIv9S0PNPxXz4HlD31GDvSsHJfjRMSJfgYRdHiD5hDATnUjMgiBNE6qRxNmBawT//4S8CA8T4JWZoE8pvKtfmF9/Rq4XliuBw7mqI4gpBVc5DIaz7/VVbDJji5r2mqRRp8z4jk3YB4HjJHJiUlwVBk4GExOfCusgByBy2mVVSma8AlhN8BCUHv3NF8qpKLRdwPy7fvHtYARHWdLxZxlVP90E1Jx7INpilIhvUz0vSnGuG8flu97oLte6BDmUOU8fPH1e/nqYTHLBbl+uruIlVRAsrk52WfkSnIusCoyLmgafSAbtDBgQLGP7us0pmnMizxKHreB/2q+ffLKJE10J7A3uEzBn0xumboQlMcibfRP4BUGw6vxfT7EjsfRvQmx2QYzxmz6oQopCMBUiVSfecz1AmZ5V8JDYCvbrgWkyN2UzhjYjB2bJqZ1ISUN9c7k+sgyI7ZjwVTOn69zT/pk3izquAQFSBOzBSzSurbfPsS0FkRcrQ+u61d8Bmykc57xcUZVlJ2ytuR5Xb/LGloO+NZQ5ObBdf2Oz+A0kjTmKk8pSgjcfdfGPYCS39Wh4kqGZ9f1O/4M5zSiSVFyKpJtD+KiTdjVs2RmA323GciqWZuPE+HtK/8dX/7lI13GSTLeVXRGDxxMdV75HLIB81yHPbmvZd5SwrVaaJMf40iqspBUSrM1B4d35V4dZT47/IdJi0yt30KMUudRk4ukSKTKzdN9cuWRGev+L00opOBy/RYiWHAHIr6AeBhnob49Za4DFMu7kv1o++Bg2IFGkSFylWRJnXO1bgs939l7WoVKYopMgF61Cayrq2FtA3iB891l3T+nSfTqdSzWb+EQtdzhfcNjxTM1zqPsMXMG9pVEfsc5vF/VH4v+s+YxuVUW67cQlJvvEfa4XggJ60hREW3tX1En0PSpTuIsx/0X6m2gNLdqun4LP2HbhBnl+Mal+W3KbN8ZfOtXWUMssbE7qIATFacirG7vOeB0bmVy/Z7mD7hs77ZO29QKKA3zMiDfzuAGDOv+szaLUaRUmJ0JZpvZZi0cuIEz2TFZm4mSxaw5YN9M4YChzbdMkSxr/Gb8BliNxQYbttC2MN32eAuzieBzcqq33nyzltrf0fQjhWmac8KcIWNYnFu7hQ6wGsvvKCYgcjPw7gW2kFSPDjHL8fV6zg8ClEjTlzrjwCCUzBNY7uxiP6/dQgvgB4OV6A7r0vkAEiDDqhNvi2S2/dU8x3NhpuzTWZMVuyrNVGl2piibPj2wdgthp7nkUl40cDBFVuaU0zgvwMn/D3pj6DHyuImSWOZFVmT6/iFx3NU+4rVbaFvO5AfSyRwyG4gy2X+ksQyogJHPFqOv/z6yv2V4IaWCz0bNGwy2duBcrPL1z+HeHa0f7rdJ6tWf+8T5QTayyGtRqCx6dwgsJ3CCLzqewLJZYLtk+qzivC4omDHTB92pD7BKd6vO1+xp/q1TJfXr6bKu8Gm1WtgScxDNVJ5nqZBc70zBF/5F/i0AX8k8cDC7BSiI1sFMnW6V2wsC5j9K1z2Hx4s42aVvzUssDl2oX3+AM+K/1OEujaUQXOgHYOMXs7q2C2/ovME3UmNdB2QYG3rdPn7fJedvd8fJmuPhaJbKMRd0Fm4zctGtZWEIsW0GDKBOY05FScO/6sxjxHmjolxxeBmwAUFKA0Xy3Y4HYz++iwQt4/VmMcgo+qPdt3n3BnbjqlfAUbEnQE2AqIJALkwxgsVss5W2Gpx121p6JoFlcSpEE3azhYGLfIbBEwmPk6Km2eLeeoxrcWEh5frRz6iHV/+333Z9zZK8LvIsTvXJkcPAq3zajx837/QXHeZtb2YeVu8vVXXwtbHpbVNmok5rmsvql3XWMFYshD1kbu91K9KW7wcoOnZTsDEt46w660ZwRLBtmhhWH7ykUN97DhS0Y4HrwhOzt1IWihciNb/trcGuCywtlLKt1QoQOXc7e833XHtgOc/PYA1KoHHYmfeCdN6CM4regugqYLOm+vdDxmDRdlSXQ+Zvo4zHkiMH2NoHgrHOuj5aKNKHj3QGZJsWcRpWPxAHz090LGWTV1USL6VVo0cM9+MQ5tJmR6qt+6tMySjrMHUssOIpjP2HWhZxnuQyW4RvvuyPr9FCSbfIaBGpMZU8TlWkjsDGbhbD9smbwixTZTQx/AnDFTwgk0fVUm2JcRQddNsRfJhL1wGVX2bjBLRKGZrtgK39FFE7h/R3wrxt3bQ9orDa9NOJ43SiNUypYx9EYatoZVGa3w6Z7Xgvq3ypAYG+3tlzhp23gvzA+wXfQFHGeb5rbmNEHX5z3uAbARZykW4xmKTnZzBJArcTDfU/Ly0mGBljyACwwVIWMjNnzw+iRu22b0XCO8HTCJ3Rw2QdzEIFIipVidQ7QMKtgWOtu9cNLASStbXka/uvTM5x/EqFBuK7a/m225mX6TOdpLzdjmHUtAI+FdxsrZ4osWCtth8bFdHHLIZq3v24ZsM+YcVC0BlsLowQKs3LImvU47amsur3YNhPXuGpmU8hpijqqDwGEXbRLevgH4bAAczyLEZNZ7Nz4m6qU2HFQpDCPhDVaiZpNuaZSvTJftusuALfxs68ixgqyka/9xxv9WSXZQU+2/ulqvNlnSLRHywWuJvqNV2x0LUDIN+42cocwnMeq7IC59CJXbY7gI20XYV/8CDszQdWcOl0nndevVUpzdvE5FP8jo3V8bv7cAkGmy3jLQlIQ33XQ+Jpreh0eNQ7q0Jg2bl+dKnuzzDKsB8MbtEiqVOFEX4FsHxd376+Svpn8BkLwZafHxqaIM0UxUIfg5dkK9GDBdgA91qXTTInTpehwXQCV6/ajr0yLpp03k3xDJnFLGetHe6fsxCYJHu8u2ipKucqqtsGhk9z6GL+ipA398+x2ni5f3+yo3MRL3vjovOAdK2BcEGeH661A+wzFrqDAHtEt03IaRrDYi31zr7jfeIiFqYgkdU5Liy67unY5w90QuO2Ny6EiElsFlw6fRK81NWD59dt1gpGkYKA9i5AnnbpbP30tk4EbzkLjpa5tvtFxhWgYCYOvJWUJ1LksEWBF11Y74B7tfAg2MHbkItojZ0KOIeKg+rB+G53e0AtbIOVom3HzHejF+hGvvQ1NuaBT7MFkr4xVyLa6q5sy2JA4tibcVSvPYsRoUsRiZFzcikvCnyGzMfLOkad5mF5/OXEsOuwo1emkOhiMrWYHWOqwL3IRDHmOZjpT4AvrdtCDcSbg/JWeudJ12lYIAMsNmrJWSEFV+b+/Etf40xuVUmGEhLWQ/XeBxc0sFcq5VjL/6WSXGFn9Fot9IfbFVoAQyuT6vYEuIlrdaOzcxer8BnuR+y8Z6670tUHvoYBmQ5eQHxMVA4rvtTAATrex7bbM/y6ZQl4AmDNdQsWQPRGLh1T2egXwMDc4UU/hgWhj+yd6bTA/ch5qD8Eq6vPs0EkOqfRLCswk0MzczJhrJtjg+9jp82S6UkZx+u1cIh3XEx2qlxxLkACN/oUpKK9wiEZMoDJiebLEeaNOSYXPTdDcI9z2MQFOJBS1VH4I2w5q7ufGTkaG7E8w58mfM2r1LJbQjl/t6gFiD5Ok4h2z9YDj2YumFGYdpFBpIsWK9uR7T804D5SKmMVmWMf7IMY2ZnD6WuTSdwIlDbi93Wv0k8DPQeHUsTtIUk8W88uawrM8Ye5hLUseK234IkBspvpLV3WPE7rHFTzh2nHVQX+EIttL4EDgHvBI8T6pXeWiM1Y6DP/DjiLtmgrk+hsj3TP8nquT4L3Ro5BMBRSiureHtgXfDCNUDFW4YS5B1Z3LHQJRIiPZ/hjLCX+Ck/8WqebsRCPy6CkWHYplGH0UzeD71sgkByYMZmhu0iyUL8np3kkihxWKE3NwyPUx5395w3Z6TjirQrmPHo4B95Nbsl1Z/U/IgDGT8jRQ/R4HHRROtvtnq2HAIK0BXYd9qPCXuJNBA8rXKPZohlh74XV5UTs5xOjRN6y8IXEs8Gw42/JdXOaLtgP6NVljkeyovtH2Dlp+5eeCBsuITyWrW9UogbSerfzCPguFz4FMSYrCngCY8wL56Oe2GgvBoJZyABKvsw+3HvObL/DRZGMQezOipi2qy8ZJxVIiA4jx8NuxPtJh2leJzIZ0zbT/7ESsHkLbbb34OPZetiQ1Uu7229qDYbwk9vVLI/bbjWhd6aXOzUGzA9G0SzlMS14zDVwAMf945Tlxi202cBhoN/b7LZAltM9wOZjpcwi050KSbaMxBEQGPtSnZDs00jmMVbkhB7PGWOB9Ufv8dotBB9pE8ytILf5NEJQOY3kIgOeKSNzRJzBn7zIfEur2duu2rCGjjtEAlTVBbaR8qyZHVxKAdzK1ty5F7hssOxDvIjwA5gSdhzuyjEIKyG4fjUBqed2lRUjx+GLduFdVMYd20IHU6XtGf4kTc2dAevGyPVb6IJsNWdeZ6TYbtrertNkisJuSiG+T51LJySZiyfCnNU30wre7aiJVYEXoWTIAQb2pVPO6+++fFwVqom2V180xHZgXD7be2oSAa4iTmhbNVr9WADymNltc8OnhQrzOqobUIiSc+A4Wz+TYJncWAH7NZNrjvjHTQkeoxEjrGzalzwGnq3ntCyAkUccGECAt0P8qbqJFHYQ2IwBYQA1rVQueURH3Wc85sOLOzppgC7ks5fXalMHIOHbyJDpkyPMoK3+PxgzeRxGNBdARZXUW0jMrD9XOJfrlE2eVW2hTaXFzFw+ww8snDDYorA/gcPm65zDf+tl6KMcNls3ssG+8gk7gNgnMpXIotSPPnu2vv3B3gedxnV7hj/T/4Qt2r0Va+DiPT4gkYukjNPZGnNtLt6ASJeXroTVne5eI3h7Jxm2RcMYFDIIpBfeZ8t/7Nw0POM5jbFjc4I/6mYmXTJaNElMVY4XhZ0cXp9Fl4Gde691IpUA/cabCrYj7KjujR3OpBUdqKw4MADSdiAGfvsM5mlcNpcRB+2e1CppS4kXgK9zsKHtKDe0znIBi1S/na/zBgIHYqHzeKzbJFKcqkUzZ86wy7YtFB0VVodhrpOmeYOH3ByvXZye45PD+8sUR61oNLt0hn/oYnP35LcK2EM+rnPRmGOXrPPELN62Cj7uYNbkCSbCJMX43mVhwcB22OmsEW1WUXL98HB5hylB7b93y4CAWNYp9F2Y3Euiy2JTEBmKZgpi/Uzf2WNkGKyzHwMXpDtg3nvM/MZcibjUt7rZCCsYDixmvzAhTTOaxrE0z/Y+zoIHKh94D7wdIfEMvz/o9tKAatyOQiWTAkSUBJWPb8C6hhOA/xU+m97TNAFJJHjx1mzjoV2grN2M0r0qEW1WGxjAHc8ZEmc0W4ALSrCbyOw8YRc9cRZMMpAGRk7L5dwnMTe/H23yRh4bO3sMzGA63i2yRpy2HKXbNUT+9UrncWuiasJzcvT7IoHdq0ShovEbcqmWj90mR/cNz9p+BvjAKVl7t9AKXNxXDsT3bJzlOKjqZE6c7i0BwL3ZvJy1jRhZrkxtkl1MgYq8MefwPtyhtVLLt21ngu0rqs0kN+YDA+e0wbsxPTbE9lLroGpvn6NcJG2LzOoz9gBGyA6WFew6w+iOMxqH+sEAJti13E4PsYfVfqkSrGxVZ1MMQcG6u4U+Bw8YgMgFNs3W1fsBcRlZvZUMdJV1p9qlNSYxihpogNSvJ93VPLAHg/aUP4poSXmidybrN+RLAFsmTzXF+M1lHmoUsJZ9ofHAf7hk71mF0bMoVSHbNvjuah66tjPPzbJZI05MfMQ26WEuIcBbTp5sRRx7RWKVR8mcLdval2i7gZzWg0ih6Cx8jFKxayEjh6+MSpbdKFF0zMhNunsPYj26i+NZA0FcJEpRjWcRVzu6wIeAwzitZ7D8QEIAdR12Ow+CX00K5os2qnzwNthK81fwIL7nqH0xqfj0OQNJ37ECXM5P5mza+YyFBzIYa2/doTmeDTP39tbfqfeVcMn0zMRpm69WoPBt0u2stPBa00tVcccDdzla1imKOin0/X1Uvjf0nm/LCoBRL1tms7qYvT3veouhbXvM6u4vx2VHr1AD4mdkk84/0t71jvxrMWDYMDNP29iXl6otrKwAZKMbOMPuCjy8p7nI1ZLWYerHD+CfG7pKEUgBznUjRIqjTgwoW7e9OuMSbMu3gYI+v6NTIWq8MBEifLBJhva1wN4uJ/hQhXHWrryyuh3A1P1pTpjrg7M8qGYFSIhEiLI9JHXDbhL8LHCInoPH0fJlEb+YVQfOn/U5njqZN5EEilCUMWas2l6FDd7t9b8AE57kydLlSB7Tz51FtMn+fS0L2jZ7ReGovevj/zjpvn7ApI0y0LlcAFcTi3eHxBq0lz2yIUZ7UJZG4pWssAVnlzPH3wewKzG4a8I4z0u8ElP/Y4pqa+gPBi5j3h3TJG2njMqqs+frP09xBcAchkP2zkxSj7GGH4fRy+AjCcdOhHgMJFQIZU72sXvlJlK0/wIb+zJgNU5+MxnW8HORhM2By3zmzLeiWPAEtIhYxCOC5O6mRvivAnuTzLDCn8s6NuM35PC1xruGKc9kqM83PborAMrEYxOpPM6LPM70VhMWeAdrXmTVe/fqb19aP0Am+sz7UO3Kok4zmdNMYaDkdbXTup5Nj+//h4u1bmAAt6okx/yEFKDyBcfzBk57y83fBuznE03jJBcqVems/A7/1o7/hoEPDGDBsyRTjdm2vm/v+Vn4DHvuTVgIvBjse/rbOr4WVjAEcR88wC5N17oJdzxfF27wX3xwVfgbz94Sfz8fehl/Px/ao0ePHj169OjRo0ePHj169OjRo0ePHj169OjRo0ePHj169OjRo0ePHj169FjBfwArP9wkog5gPAAAAABJRU5ErkJggg==;" vertex="1" parent="1">
          <mxGeometry x="340" y="-495" width="80" height="80" as="geometry" />
        </mxCell>
        <mxCell id="kBkZ9Z5aif8e4juzGFBR-8" value="Databricks" style="text;strokeColor=none;align=center;fillColor=none;html=1;verticalAlign=middle;whiteSpace=wrap;rounded=0;" vertex="1" parent="1">
          <mxGeometry x="500" y="-428" width="60" height="30" as="geometry" />
        </mxCell>
      </root>
    </mxGraphModel>
  </diagram>
</mxfile>
